<?xml version="1.0" encoding="utf-8"?>
<!-- Generator: Adobe Illustrator 26.0.1, SVG Export Plug-In . SVG Version: 6.00 Build 0)  -->
<svg version="1.1" id="Слой_1" xmlns="http://www.w3.org/2000/svg" xmlns:xlink="http://www.w3.org/1999/xlink" x="0px" y="0px"
	 viewBox="0 0 228.12 321.5" style="enable-background:new 0 0 228.12 321.5;" xml:space="preserve">
<style type="text/css">
	.st0{fill:#EDEDED;stroke:#000000;stroke-width:4;stroke-miterlimit:10;}
	.st1{stroke:#000000;stroke-miterlimit:10;}
	.st2{fill:#9DB383;stroke:#000000;stroke-width:3;stroke-miterlimit:10;}
</style>
<path class="st0" d="M158.63,10.69l58.04,0.4c5.55,0.04,9.2,4.19,8.16,9.28l-21.26,103.66c-1.04,5.08-6.39,9.18-11.93,9.14
	l-58.04-0.4c-5.55-0.04-9.2-4.19-8.16-9.28L146.7,19.82C147.74,14.74,153.08,10.65,158.63,10.69z"/>
<ellipse transform="matrix(0.8685 -0.4958 0.4958 0.8685 -39.0482 97.7918)" class="st1" cx="164.76" cy="122.48" rx="7.41" ry="6.02"/>
<path class="st2" d="M210.62,314.01H16.85c-4.23,0-7.66-3.43-7.66-7.66V155.93c0-4.23,3.43-7.66,7.66-7.66h193.77
	c4.23,0,7.66,3.43,7.66,7.66v150.42C218.28,310.58,214.85,314.01,210.62,314.01z"/>
<path class="st0" d="M87.96,296.68h-55.6c-5.32,0-9.62-4.31-9.62-9.62V178.7c0-5.32,4.31-9.62,9.62-9.62h55.6
	c5.32,0,9.62,4.31,9.62,9.62v108.36C97.59,292.37,93.28,296.68,87.96,296.68z"/>
<path class="st0" d="M194.68,296.68h-55.6c-5.32,0-9.62-4.31-9.62-9.62V178.7c0-5.32,4.31-9.62,9.62-9.62h55.6
	c5.32,0,9.62,4.31,9.62,9.62v108.36C204.3,292.37,200,296.68,194.68,296.68z"/>
<circle class="st1" cx="59.95" cy="180.03" r="6.68"/>
<g>
	<g>
		<path d="M44.11,231.48c-0.31,5.05,0,9.97,1.03,14.93c0.83,4.01,2.09,7.71,5.2,10.54c3.49,3.17,8.42,4.67,12.97,3.01
			c3.3-1.2,6.15-3.58,8.05-6.52c1.22-1.9,1.84-4.11,2.31-6.29c0.6-2.83,1.08-5.7,1.21-8.6c0.23-4.98-0.3-10.14-1.31-15.02
			c-0.82-3.96-1.8-8.36-3.99-11.81c-2.43-3.84-6.25-7.02-11.05-6.29c-4.88,0.75-8.9,4.97-10.76,9.32
			C45.49,220.1,44.46,225.71,44.11,231.48c-0.2,3.21,4.8,3.2,5,0c0.27-4.39,1.02-8.52,2.45-12.7c0.57-1.68,1.23-3.39,2.34-4.79
			c1.04-1.32,2.09-2.13,3.35-2.86c1.45-0.84,3.1-1.18,4.64-0.37c0.7,0.37,1.26,0.91,1.8,1.48c0.27,0.29,0.53,0.6,0.78,0.9
			c0.12,0.14,0.23,0.28,0.35,0.43c0.41,0.52-0.29-0.43,0.1,0.13c1.82,2.66,2.58,5.87,3.36,9.05c2.04,8.27,2.47,17.47-0.09,25.67
			c-0.73,2.33-2.5,4.47-4.31,5.68c-3,2-6.47,1.97-9.4-0.19c-0.68-0.5-1.85-1.66-2.46-2.62c-1.07-1.68-1.5-3.64-1.93-5.63
			c-1.01-4.73-1.27-9.38-0.97-14.2C49.3,228.27,44.3,228.28,44.11,231.48z"/>
	</g>
</g>
<circle class="st1" cx="166.88" cy="180.03" r="6.68"/>
<g>
	<g>
		<path d="M62.29,182.36c5.74-12.55,10.56-26.41,9.89-40.41c-0.15-3.14-0.28-6.44-1.2-9.47c-0.78-2.56-2.2-4.82-4.01-6.78
			c-2.08-2.26-4.81-4.07-7.95-4.28c-3.4-0.23-6.13,1.89-8.04,4.49c-1.98,2.71-3.38,6.14-4.36,9.33c-1.11,3.63-1.48,7.51-1.17,11.29
			c0.11,1.35,1.07,2.5,2.5,2.5c1.26,0,2.61-1.15,2.5-2.5c-0.48-5.67,0.91-11.17,3.51-15.97c0.53-0.98,1.09-1.91,1.83-2.69
			c0.71-0.76,1.52-1.33,2.23-1.44c2.23-0.35,4.18,1.42,5.58,2.99c0.24,0.27,0.47,0.55,0.7,0.83c-0.48-0.59,0.26,0.37,0.33,0.46
			c0.77,1.11,1.32,2.28,1.67,3.58c0.68,2.52,0.77,5.2,0.89,7.8c0.26,5.71-0.46,11.48-1.81,17.02c-1.72,7.1-4.37,14.09-7.4,20.72
			c-0.56,1.23-0.35,2.69,0.9,3.42C59.94,183.89,61.72,183.6,62.29,182.36L62.29,182.36z"/>
	</g>
</g>
<g>
	<g>
		<path d="M167.7,182.36c4.46-9.75,8.19-20.06,9.47-30.75c0.41-3.42,0.58-6.87,0.38-10.31c-0.27-4.65-0.58-9.5-3.4-13.4
			c-2.49-3.44-6.17-6.78-10.71-6.47c-1.35,0.09-2.5,1.08-2.5,2.5c0,1.28,1.15,2.59,2.5,2.5c1.59-0.11,2.96,0.56,4.12,1.55
			c0.58,0.49,1.11,1.04,1.61,1.62c0.18,0.21,0.36,0.43,0.54,0.65c-0.41-0.51,0.02,0.03,0.12,0.17c2.37,3.27,2.52,7.25,2.74,11.15
			c0.44,8.08-1.07,16.18-3.6,23.83c-1.62,4.9-3.44,9.74-5.58,14.44c-0.56,1.23-0.35,2.69,0.9,3.42
			C165.35,183.89,167.13,183.6,167.7,182.36L167.7,182.36z"/>
	</g>
</g>
<g>
	<g>
		<path d="M151.55,233.05c-0.31,5.05,0,9.97,1.03,14.93c0.83,4.01,2.09,7.71,5.2,10.54c3.49,3.17,8.42,4.67,12.97,3.01
			c3.3-1.2,6.15-3.58,8.05-6.52c1.22-1.9,1.84-4.11,2.31-6.29c0.6-2.83,1.08-5.7,1.21-8.6c0.23-4.98-0.3-10.14-1.31-15.02
			c-0.82-3.96-1.8-8.36-3.99-11.81c-2.43-3.84-6.25-7.02-11.05-6.29c-4.88,0.75-8.9,4.97-10.76,9.32
			C152.93,221.67,151.91,227.28,151.55,233.05c-0.2,3.21,4.8,3.2,5,0c0.27-4.39,1.02-8.52,2.45-12.7c0.57-1.68,1.23-3.39,2.34-4.79
			c1.04-1.32,2.09-2.13,3.35-2.86c1.45-0.84,3.1-1.18,4.64-0.37c0.7,0.37,1.26,0.91,1.8,1.48c0.27,0.29,0.53,0.6,0.78,0.9
			c0.12,0.14,0.23,0.28,0.35,0.43c0.41,0.52-0.29-0.43,0.1,0.13c1.82,2.66,2.58,5.87,3.36,9.05c2.04,8.27,2.47,17.47-0.09,25.67
			c-0.73,2.33-2.5,4.47-4.31,5.68c-3,2-6.47,1.97-9.4-0.19c-0.68-0.5-1.85-1.66-2.46-2.62c-1.07-1.68-1.5-3.64-1.93-5.63
			c-1.01-4.73-1.27-9.38-0.97-14.2C156.75,229.84,151.75,229.85,151.55,233.05z"/>
	</g>
</g>
<g>
	<g>
		<path d="M155.1,146.54c-0.15-1.79-0.15-3.6,0.03-5.39c0.03-0.27,0.06-0.53,0.09-0.8c-0.07,0.55,0.03-0.19,0.07-0.37
			c0.1-0.58,0.21-1.16,0.35-1.73c0.32-1.33,0.74-2.64,1.25-3.91c0.49-1.22-0.53-2.8-1.75-3.08c-1.45-0.33-2.55,0.44-3.08,1.75
			c-1.71,4.26-2.35,8.96-1.96,13.53c0.11,1.3,1.07,2.56,2.5,2.5C153.86,148.98,155.22,147.93,155.1,146.54L155.1,146.54z"/>
	</g>
</g>
</svg>
