<svg xmlns="http://www.w3.org/2000/svg" viewBox="0 0 5.01 5.02"><defs><style>.cls-1{fill:#fff;}</style></defs><g id="Слой_2" data-name="Слой 2"><g id="Слой_1-2" data-name="Слой 1"><path class="cls-1" d="M3.17.11h0l.6.26h0l.5.39h0l.39.5h0l.25.59h0L5,2.51H5l-.09.67h0a1.86,1.86,0,0,0,0-1,1.93,1.93,0,0,0-.3-.93A1.88,1.88,0,0,0,4,.54,1.94,1.94,0,0,0,3.17.09L2.5,0A2.53,2.53,0,0,0,1.24.34L.73.73A2.53,2.53,0,0,0,0,2.51,2.53,2.53,0,0,0,.34,3.77a2.5,2.5,0,0,0,.4.51,2.5,2.5,0,0,0,1.11.65,1.85,1.85,0,0,0,1,0,1.85,1.85,0,0,0,.93-.29A1.9,1.9,0,0,0,4.47,4a1.89,1.89,0,0,0,.45-.85L5,2.52a2.57,2.57,0,0,0-.34-1.27L4.28.75A2.39,2.39,0,0,0,3.17.11Z"/></g></g></svg>